<?xml version="1.0" standalone="no"?>
<!DOCTYPE svg PUBLIC "-//W3C//DTD SVG 20010904//EN"
 "http://www.w3.org/TR/2001/REC-SVG-20010904/DTD/svg10.dtd">
<svg version="1.0" xmlns="http://www.w3.org/2000/svg"
 width="512.000000pt" height="512.000000pt" viewBox="0 0 512.000000 512.000000"
 preserveAspectRatio="xMidYMid meet">

<g transform="translate(0.000000,512.000000) scale(0.100000,-0.100000)"
fill="#000000" stroke="none">
<path d="M1278 3851 l-1278 -176 0 -30 c0 -30 1 -31 83 -48 45 -11 240 -57
432 -103 193 -46 359 -86 371 -89 17 -4 23 4 38 45 14 39 23 50 44 54 39 8
1340 185 1382 188 24 2 35 -1 37 -12 3 -13 -108 -30 -679 -108 -376 -52 -696
-97 -713 -101 -22 -5 -32 -15 -39 -40 -6 -22 -6 -35 2 -39 5 -4 112 -31 236
-61 l225 -54 -31 -45 c-48 -69 -122 -236 -166 -372 -36 -111 -92 -346 -92
-385 0 -26 57 -80 112 -107 66 -32 263 -88 612 -173 309 -76 413 -107 583
-177 105 -43 127 -49 150 -40 16 6 73 29 128 52 150 61 251 91 585 174 521
128 619 163 668 236 29 43 27 60 -28 276 -55 214 -132 405 -212 522 -16 23
-25 42 -21 42 5 0 287 67 628 149 341 82 657 157 703 167 81 19 82 19 82 49
l0 30 -352 49 c-194 26 -758 103 -1253 171 -495 68 -913 126 -930 128 -16 2
-605 -75 -1307 -172z"/>
<path d="M880 2443 l0 -83 50 0 50 0 0 83 0 82 -50 0 -50 0 0 -82z"/>
</g>
</svg>
